Coordinates
version=1
nRows=8
nColumns=42
inDegrees=yes

Units are S.I. units (second, meters, Newtons, ...)
If the header above contains a line with 'inDegrees', this indicates whether rotational values are in degrees (yes) or radians (no).

endheader
time	pelvis_tilt	pelvis_list	pelvis_rotation	pelvis_tx	pelvis_ty	pelvis_tz	hip_flexion_r	hip_adduction_r	hip_rotation_r	knee_angle_r	knee_adduction_r	knee_angle_r_beta	ankle_angle_r	subtalar_angle_r	mtp_angle_r	hip_flexion_l	hip_adduction_l	hip_rotation_l	knee_angle_l	knee_adduction_l	knee_angle_l_beta	ankle_angle_l	subtalar_angle_l	mtp_angle_l	lumbar_extension	lumbar_bending	lumbar_rotation	arm_flex_r	arm_add_r	arm_rot_r	elbow_flex_r	pro_sup_r	wrist_flex_r	wrist_dev_r	arm_flex_l	arm_add_l	arm_rot_l	elbow_flex_l	pro_sup_l	wrist_flex_l	wrist_dev_l
      3.00000000	      5.69721173	     10.29101713	     94.62290139	      0.48776702	      0.97312349	     -0.72296714	     -3.82874284	      7.57949192	     -7.50546829	     16.05308845	      5.96791786	      0.28017925	      5.29410472	     -3.99294615	    -11.93442690	      7.85711167	     -6.78592716	      0.47717693	     67.41677623	      5.46256159	      1.17664472	     -1.98879439	    -18.33462213	    -11.16702134	    -18.78499506	      9.16245140	      0.45025623	      1.86445493	    -14.36499638	    -11.58938648	     42.37125387	     90.00000001	      0.00000000	      0.00000000	      2.86630472	    -11.59286691	      3.71997183	     42.47433584	     90.00000001	      0.00000000	      0.00000000
      3.01000000	      5.38317538	     10.30119590	     94.15488337	      0.48829524	      0.97495505	     -0.72182963	     -5.18503779	      7.28176241	     -6.86559294	     15.25402291	      5.96791786	      0.26623292	      5.45403330	     -3.53622416	    -11.80039637	      9.27424148	     -6.32964399	     -0.16531069	     66.47300874	      5.46256159	      1.16017287	     -0.88618663	    -18.31089402	    -11.00323153	    -18.96054763	      8.68762718	      1.12201842	      2.58017945	    -14.70467067	    -11.21786820	     43.72991287	     90.00000001	      0.00000000	      0.00000000	      2.15262998	    -11.34509732	      3.77166450	     42.14894027	     90.00000001	      0.00000000	      0.00000000
      3.02000000	      5.06516094	     10.71736852	     93.39628199	      0.48879431	      0.97712382	     -0.72032181	     -6.96417011	      6.94239631	     -5.87393975	     14.41497970	      5.96791786	      0.25158886	      5.50250819	     -3.40962944	    -11.53420318	     10.05271094	     -5.95508495	     -1.08206682	     65.12001263	      5.46256159	      1.13655863	      0.23421594	    -18.02141779	    -10.47953080	    -19.71904701	      8.20119298	      2.15003063	      3.28349063	    -15.31893813	    -10.40267319	     45.32093009	     90.00000001	      0.00000000	      0.00000000	      1.62305103	    -10.96706426	      3.59525928	     41.75070709	     90.00000001	      0.00000000	      0.00000000
      3.03000000	      4.81252409	     10.73471326	     93.02607325	      0.48934227	      0.97834117	     -0.71874288	     -8.24691525	      6.69620312	     -5.30142243	     13.66874253	      5.96791786	      0.23856456	      5.57443316	     -3.29407973	    -11.42064282	     11.38189073	     -5.64321747	     -1.56837749	     63.66643065	      5.46256159	      1.11118884	      1.15527013	    -17.56323286	    -10.24253537	    -19.92406131	      7.78335942	      2.57487713	      4.24424273	    -15.59620362	     -9.98943811	     46.43691626	     90.00000001	      0.00000000	      0.00000000	      0.86976669	    -10.76841505	      3.36664318	     41.44242923	     90.00000001	      0.00000000	      0.00000000
      3.04000000	      4.58695647	     10.52467427	     92.81499044	      0.48935467	      0.97887526	     -0.71725063	     -9.22700638	      6.46078083	     -4.96056794	     12.98766666	      5.96791786	      0.22667755	      5.80497713	     -3.15858652	    -11.34446061	     12.94558531	     -5.30177405	     -1.86346006	     62.05572926	      5.46256159	      1.08307680	      1.95335095	    -17.20750382	    -10.18759134	    -19.83098034	      7.47336306	      2.78079802	      5.23855517	    -15.82298760	     -9.78727962	     47.45811731	     90.00000001	      0.00000000	      0.00000000	      0.03608590	    -10.57098700	      3.26443619	     41.03697674	     90.00000001	      0.00000000	      0.00000000
      3.05000000	      4.25327506	     10.82124380	     92.33820654	      0.48963045	      0.98004531	     -0.71548864	    -10.85883841	      6.07518883	     -4.18298166	     12.09229312	      5.96791786	      0.21105033	      5.80815511	     -3.26366902	    -11.26424917	     13.61662496	     -4.97054799	     -2.45964682	     59.83359468	      5.46256159	      1.04429323	      2.74631799	    -16.47441579	     -9.84393623	    -20.41943892	      6.97731014	      3.30035783	      6.23308458	    -16.25571340	     -9.09512113	     48.62893901	     90.00000001	      0.00000000	      0.00000000	     -0.53273707	     -9.98554337	      2.04443081	     40.42754275	     90.00000001	      0.00000000	      0.00000000
      3.06000000	      3.97600611	     10.78188344	     92.05596864	      0.48977998	      0.98037370	     -0.71381479	    -12.04270029	      5.74208658	     -3.70549860	     11.37116104	      5.96791786	      0.19846420	      5.95657213	     -3.20255768	    -11.24045362	     14.64277022	     -4.66665470	     -2.81310636	     57.45631230	      5.46256159	      1.00280183	      3.42712111	    -15.80921698	     -9.63393804	    -20.55312912	      6.58653232	      3.51006375	      7.30257698	    -16.53673990	     -8.59068923	     49.58488590	     90.00000001	      0.00000000	      0.00000000	     -1.27009609	     -9.71478668	      1.51559466	     39.86934814	     90.00000001	      0.00000000	      0.00000000
      3.07000000	      3.81924144	     10.68942922	     91.84146780	      0.49000762	      0.98035824	     -0.71215329	    -13.15463646	      5.55461576	     -3.28278516	     10.64885111	      5.96791786	      0.18585751	      6.09842446	     -3.15275337	    -11.18440920	     15.64677938	     -4.50789676	     -3.02758768	     54.84910896	      5.46256159	      0.95729754	      3.97984576	    -15.13047574	     -9.44964050	    -20.62537618	      6.32899835	      3.71175930	      8.30669618	    -16.80441486	     -8.15823089	     50.56218207	     90.00000001	      0.00000000	      0.00000000	     -1.96004109	     -9.47551533	      1.11922788	     39.26565721	     90.00000001	      0.00000000	      0.00000000
